<?xml version="1.0" standalone="no"?>
<svg viewBox="0 0 900 450" xmlns="http://www.w3.org/2000/svg" version="1.1" preserveAspectRatio="none">
  <path fill="#fffbf2" d="M0 371L25 357.7C50 344.3 100 317.7 150 315.2C200 312.7 250 334.3 300 325.5C350 316.7 400 277.3 450 259.5C500 241.7 550 245.3 600 267.3C650 289.3 700 329.7 750 340.5C800 351.3 850 332.7 875 323.3L900 314L900 0L875 0C850 0 800 0 750 0C700 0 650 0 600 0C550 0 500 0 450 0C400 0 350 0 300 0C250 0 200 0 150 0C100 0 50 0 25 0L0 0Z" />
  <path fill="#fff3da" d="M0 203L25 202.5C50 202 100 201 150 205.7C200 210.3 250 220.7 300 223C350 225.3 400 219.7 450 227.7C500 235.7 550 257.3 600 260.2C650 263 700 247 750 245.3C800 243.7 850 256.3 875 262.7L900 269L900 0L875 0C850 0 800 0 750 0C700 0 650 0 600 0C550 0 500 0 450 0C400 0 350 0 300 0C250 0 200 0 150 0C100 0 50 0 25 0L0 0Z" />
  <path fill="#ffebc3" d="M0 206L25 211.8C50 217.7 100 229.3 150 228.8C200 228.3 250 215.7 300 208.3C350 201 400 199 450 189.2C500 179.3 550 161.7 600 162C650 162.3 700 180.7 750 191C800 201.3 850 203.7 875 204.8L900 206L900 0L875 0C850 0 800 0 750 0C700 0 650 0 600 0C550 0 500 0 450 0C400 0 350 0 300 0C250 0 200 0 150 0C100 0 50 0 25 0L0 0Z" />
  <path fill="#ffe3ac" d="M0 137L25 132.2C50 127.3 100 117.7 150 116.7C200 115.7 250 123.3 300 131.3C350 139.3 400 147.7 450 153.5C500 159.3 550 162.7 600 154.7C650 146.7 700 127.3 750 115.2C800 103 850 98 875 95.5L900 93L900 0L875 0C850 0 800 0 750 0C700 0 650 0 600 0C550 0 500 0 450 0C400 0 350 0 300 0C250 0 200 0 150 0C100 0 50 0 25 0L0 0Z" />
  <path fill="#ffda95" d="M0 54L25 60.3C50 66.7 100 79.3 150 87.7C200 96 250 100 300 98C350 96 400 88 450 82.5C500 77 550 74 600 78.5C650 83 700 95 750 92.2C800 89.3 850 71.7 875 62.8L900 54L900 0L875 0C850 0 800 0 750 0C700 0 650 0 600 0C550 0 500 0 450 0C400 0 350 0 300 0C250 0 200 0 150 0C100 0 50 0 25 0L0 0Z" />
</svg>
