<?xml version="1.0" standalone="no"?>
<svg viewBox="0 0 900 900" xmlns="http://www.w3.org/2000/svg" version="1.1" preserveAspectRatio="none">
  <g transform="translate(0,295)">
    <path fill="#fff6e7" d="M0 73L21.5 67C43 61 86 49 128.8 48C171.7 47 214.3 57 257.2 56C300 55 343 43 385.8 42C428.7 41 471.3 51 514.2 57C557 63 600 65 642.8 68C685.7 71 728.3 75 771.2 76C814 77 857 75 878.5 74L900 73L900 41L878.5 43C857 45 814 49 771.2 50C728.3 51 685.7 49 642.8 47C600 45 557 43 514.2 38C471.3 33 428.7 25 385.8 26C343 27 300 37 257.2 37C214.3 37 171.7 27 128.8 25C86 23 43 29 21.5 32L0 35Z" />
    <path fill="#ffeecf" d="M0 103L21.5 94C43 85 86 67 128.8 64C171.7 61 214.3 73 257.2 73C300 73 343 61 385.8 60C428.7 59 471.3 69 514.2 74C557 79 600 79 642.8 81C685.7 83 728.3 87 771.2 89C814 91 857 91 878.5 91L900 91L900 71L878.5 72C857 73 814 75 771.2 74C728.3 73 685.7 69 642.8 66C600 63 557 61 514.2 55C471.3 49 428.7 39 385.8 40C343 41 300 53 257.2 54C214.3 55 171.7 45 128.8 46C86 47 43 59 21.5 65L0 71Z" />
    <path fill="#ffe5b7" d="M0 151L21.5 141C43 131 86 111 128.8 104C171.7 97 214.3 103 257.2 104C300 105 343 101 385.8 105C428.7 109 471.3 121 514.2 124C557 127 600 121 642.8 121C685.7 121 728.3 127 771.2 129C814 131 857 129 878.5 128L900 127L900 89L878.5 89C857 89 814 89 771.2 87C728.3 85 685.7 81 642.8 79C600 77 557 77 514.2 72C471.3 67 428.7 57 385.8 58C343 59 300 71 257.2 71C214.3 71 171.7 59 128.8 62C86 65 43 83 21.5 92L0 101Z" />
    <path fill="#ffdd9f" d="M0 181L21.5 173C43 165 86 149 128.8 141C171.7 133 214.3 133 257.2 135C300 137 343 141 385.8 146C428.7 151 471.3 157 514.2 160C557 163 600 163 642.8 162C685.7 161 728.3 159 771.2 155C814 151 857 145 878.5 142L900 139L900 125L878.5 126C857 127 814 129 771.2 127C728.3 125 685.7 119 642.8 119C600 119 557 125 514.2 122C471.3 119 428.7 107 385.8 103C343 99 300 103 257.2 102C214.3 101 171.7 95 128.8 102C86 109 43 129 21.5 139L0 149Z" />
    <path fill="#ffda95" d="M0 283L21.5 279C43 275 86 267 128.8 262C171.7 257 214.3 255 257.2 248C300 241 343 229 385.8 239C428.7 249 471.3 281 514.2 287C557 293 600 273 642.8 262C685.7 251 728.3 249 771.2 249C814 249 857 251 878.5 252L900 253L900 137L878.5 140C857 143 814 149 771.2 153C728.3 157 685.7 159 642.8 160C600 161 557 161 514.2 158C471.3 155 428.7 149 385.8 144C343 139 300 135 257.2 133C214.3 131 171.7 131 128.8 139C86 147 43 163 21.5 171L0 179Z" />
    <path fill="#ffda95" d="M0 295L21.5 295C43 295 86 295 128.8 293C171.7 291 214.3 287 257.2 278C300 269 343 255 385.8 264C428.7 273 471.3 305 514.2 311C557 317 600 297 642.8 284C685.7 271 728.3 265 771.2 266C814 267 857 275 878.5 279L900 283L900 251L878.5 250C857 249 814 247 771.2 247C728.3 247 685.7 249 642.8 260C600 271 557 291 514.2 285C471.3 279 428.7 247 385.8 237C343 227 300 239 257.2 246C214.3 253 171.7 255 128.8 260C86 265 43 273 21.5 277L0 281Z" />
    <path fill="#ffdd9f" d="M0 397L21.5 405C43 413 86 429 128.8 435C171.7 441 214.3 437 257.2 425C300 413 343 393 385.8 391C428.7 389 471.3 405 514.2 413C557 421 600 421 642.8 410C685.7 399 728.3 377 771.2 369C814 361 857 367 878.5 370L900 373L900 281L878.5 277C857 273 814 265 771.2 264C728.3 263 685.7 269 642.8 282C600 295 557 315 514.2 309C471.3 303 428.7 271 385.8 262C343 253 300 267 257.2 276C214.3 285 171.7 289 128.8 291C86 293 43 293 21.5 293L0 293Z" />
    <path fill="#ffe5b7" d="M0 487L21.5 491C43 495 86 503 128.8 501C171.7 499 214.3 487 257.2 474C300 461 343 447 385.8 445C428.7 443 471.3 453 514.2 461C557 469 600 475 642.8 474C685.7 473 728.3 465 771.2 465C814 465 857 473 878.5 477L900 481L900 371L878.5 368C857 365 814 359 771.2 367C728.3 375 685.7 397 642.8 408C600 419 557 419 514.2 411C471.3 403 428.7 387 385.8 389C343 391 300 411 257.2 423C214.3 435 171.7 439 128.8 433C86 427 43 411 21.5 403L0 395Z" />
    <path fill="#ffeecf" d="M0 523L21.5 527C43 531 86 539 128.8 545C171.7 551 214.3 555 257.2 549C300 543 343 527 385.8 525C428.7 523 471.3 535 514.2 538C557 541 600 535 642.8 530C685.7 525 728.3 521 771.2 523C814 525 857 533 878.5 537L900 541L900 479L878.5 475C857 471 814 463 771.2 463C728.3 463 685.7 471 642.8 472C600 473 557 467 514.2 459C471.3 451 428.7 441 385.8 443C343 445 300 459 257.2 472C214.3 485 171.7 497 128.8 499C86 501 43 493 21.5 489L0 485Z" />
    <path fill="#fff6e7" d="M0 571L21.5 573C43 575 86 579 128.8 582C171.7 585 214.3 587 257.2 584C300 581 343 573 385.8 573C428.7 573 471.3 581 514.2 581C557 581 600 573 642.8 568C685.7 563 728.3 561 771.2 562C814 563 857 567 878.5 569L900 571L900 539L878.5 535C857 531 814 523 771.2 521C728.3 519 685.7 523 642.8 528C600 533 557 539 514.2 536C471.3 533 428.7 521 385.8 523C343 525 300 541 257.2 547C214.3 553 171.7 549 128.8 543C86 537 43 529 21.5 525L0 521Z" />
  </g>
</svg>
