<?xml version="1.0" encoding="UTF-8" standalone="no"?>
<svg version="1.1" xmlns="http://www.w3.org/2000/svg" xmlns:xlink="http://www.w3.org/1999/xlink" viewBox="0 0 210 40">
	<defs>
		<clipPath id="text" clipPathUnits="userSpaceOnUse">
      <path d="m22.784 35.013-6.96-10.16-2.12 2v8.16h-7.28v-27.2h7.28v9.44l10.92-10.04 5.64 4.08-9.24 8.64 11 15.08h-9.24z"/>
      <path d="m52.243 25.413q0 3.16-1.48 5.44-1.44 2.28-4 3.44-2.52 1.16-5.68 1.16-4.88 0-7.88-2.6-2.96-2.64-2.96-7.64 0-3.16 1.44-5.48 1.48-2.36 3.96-3.56 2.52-1.24 5.6-1.24 3.24 0 5.72 1.2t3.88 3.56 1.4 5.72zm-11.08 4.12q1.72 0 2.64-1.04t0.92-3.08q0-2-0.92-3.28-0.88-1.28-2.48-1.28-1.68 0-2.64 1.16-0.92 1.16-0.92 3.2 0 2 0.88 3.16t2.52 1.16z"/>
      <path d="m63.716 16.413v-6.24l-7.28 1v5.24h-3v5.72h3v5.6q0 2.48 1.24 4.24 1.28 1.72 3.36 2.6t4.48 0.88q1.36 0 2.96-0.52 1.64-0.56 2.4-1.2l-2.08-4.96q-1.36 0.76-2.8 0.76-1.04 0-1.68-0.68-0.6-0.72-0.6-1.92v-4.8h5.76l-0.68-5.72h-5.08z"/>
      <path d="m74.08 22.013q1.12-0.48 2.48-0.8 1.4-0.36 2.36-0.36 1.04 0 1.68 0.56 0.68 0.56 0.84 1.68h-2.32q-7.6 0-7.6 5.68 0 3.08 1.84 4.88t5.44 1.8q2.44 0 4.36-2.44l2.08 2h3.52v-12q0-3.76-2.08-5.92t-5.96-2.16q-2.24 0-4.56 0.56-2.32 0.52-4 1.28l1.92 5.24zm3.52 6.64q0-0.68 0.44-1.12 0.48-0.44 1.2-0.44h2.24v1.84q-1.32 1.08-2.56 1.08-0.56 0-0.96-0.36-0.36-0.4-0.36-1z"/>
      <path d="m91.95 33.333q1.56 0.92 4.16 1.56 2.64 0.64 4.76 0.64 3.28 0 5.72-1.04 2.48-1.04 3.8-2.84t1.32-4.12q0-2.08-1.2-3.72-1.16-1.68-2.84-2.88-1.68-1.24-4.2-2.68l-1.44-0.8q-1.44-0.76-2.08-1.2-0.6-0.48-0.6-1.08 0-0.8 0.72-1.36 0.76-0.56 1.96-0.56 1.36 0 2.48 0.24 1.16 0.24 3.28 0.96l2.16-4.92q-1.56-1.04-3.76-1.64-2.16-0.6-4.24-0.6-3.04 0-5.32 1t-3.56 2.8q-1.24 1.76-1.24 4 0 2.12 1.2 3.8t2.72 2.76q1.52 1.04 4.24 2.64l1.24 0.72q1.56 0.92 2.24 1.44 0.72 0.48 0.72 1 0 0.8-0.96 1.48-0.96 0.64-2.56 0.64-1.44 0-3.36-0.52-1.88-0.56-2.96-1.2l-2.4 5.48z"/>
      <path d="m132.525 25.013q0-2.8-1.08-5.08-1.04-2.28-3.12-3.64t-5.08-1.36q-2.96 0-5.36 1.28-2.36 1.24-3.72 3.6t-1.36 5.52q0 3.2 1.48 5.52 1.48 2.28 4.08 3.44 2.64 1.16 6.04 1.16 2.36 0 4.6-0.6 2.28-0.6 3.48-1.48l-2.04-4.92q-2.56 1.32-5.32 1.32-1.8 0-2.92-0.68-1.08-0.72-1.48-1.96h11.8v-2.12zm-12-1.48q-0.04-1.08 0.72-1.92 0.8-0.84 1.8-0.84 1.24 0 1.88 0.88t0.64 1.88h-5.04z"/>
      <path d="m141.613 23.613q1.24-0.96 2.96-1.56t3.16-0.6l-1.48-5.84q-1.52 0-3.32 0.72t-3.2 1.68l-1.76-2.36h-3.64v19.36h7.28v-11.4z"/>
      <path d="m161.835 35.013 7.64-19.4h-7.24l-3.72 10.96-3.88-11.68-6.72 1.92 7.04 18.2h6.88z"/>
      <path d="m188.369 25.013q0-2.8-1.08-5.08-1.04-2.28-3.12-3.64t-5.08-1.36q-2.96 0-5.36 1.28-2.36 1.24-3.72 3.6t-1.36 5.52q0 3.2 1.48 5.52 1.48 2.28 4.08 3.44 2.64 1.16 6.04 1.16 2.36 0 4.6-0.6 2.28-0.6 3.48-1.48l-2.04-4.92q-2.56 1.32-5.32 1.32-1.8 0-2.92-0.68-1.08-0.72-1.48-1.96h11.8v-2.12zm-12-1.48q-0.04-1.08 0.72-1.92 0.8-0.84 1.8-0.84 1.24 0 1.88 0.88t0.64 1.88h-5.04z"/>
      <path d="m197.457 23.613q1.24-0.96 2.96-1.56t3.16-0.6l-1.48-5.84q-1.52 0-3.32 0.72t-3.2 1.68l-1.76-2.36h-3.64v19.36h7.28v-11.4z"/>
		</clipPath>
	</defs>
  <g>
    <g fill-rule="evenodd" clip-path="url(#text)" fill="#374151">
      <rect width="200" height="30" x="5" y="6.373"/>
      <path d="m43.263 26.396c-11.478 0-18.226 3.211-30.867 3.211-2.703 0-5.126-0.152-7.395-0.383v7.148h200v-7.148c-2.267 0.231-4.69 0.383-7.392 0.383-12.641 0-19.39-3.211-30.869-3.211-11.478 0-18.229 3.211-30.87 3.211s-19.39-3.211-30.869-3.211c-11.478 0-18.228 3.211-30.869 3.211s-19.39-3.211-30.869-3.211z"/>
    </g>
    <path id="paw" fill="#fd8c29" d="m47.371 8.66a1.05359 1.74199 2.2419 0 1 -1.12 1.699 1.05359 1.74199 2.2419 0 1 -0.985 -1.782 1.05359 1.74199 2.2419 0 1 1.12 -1.698 1.05359 1.74199 2.2419 0 1 0.985 1.781zm7.285 0.05a1.05359 1.74199 2.2419 0 1 -1.12 1.701 1.05359 1.74199 2.2419 0 1 -0.987 -1.783 1.05359 1.74199 2.2419 0 1 1.123 -1.699 1.05359 1.74199 2.2419 0 1 0.984 1.781zm-2.163-2.46a1.05359 1.74199 2.2419 0 1 -1.123 1.699 1.05359 1.74199 2.2419 0 1 -0.983 -1.782 1.05359 1.74199 2.2419 0 1 1.121 -1.699 1.05359 1.74199 2.2419 0 1 0.985 1.782zm-6.042 6.963c-0.635-1.097 1.783-4.61 3.486-4.543 1.7 0.06 4.075 3.547 2.973 4.795-0.773 0.88-1.943-0.175-3.152-0.222-1.21-0.04-2.518 1.332-3.307-0.03zm3.239-6.935a1.05359 1.74199 2.2419 0 1 -1.121 1.698 1.05359 1.74199 2.2419 0 1 -0.985 -1.781 1.05359 1.74199 2.2419 0 1 1.121 -1.7 1.05359 1.74199 2.2419 0 1 0.985 1.783z"/>
    <use xlink:href="#paw" transform="translate(90.338,0)"/>
  </g>
</svg>