<?xml version="1.0" encoding="UTF-8" standalone="no"?>
<svg version="1.1" xmlns="http://www.w3.org/2000/svg" viewBox="0 0 40 48">
  <g id="logo">
    <path fill="#ff8c2a" d="m15.6772 3.329c-0.0007 0 0 0 0 0-0.086 0.392-0.1531 0.791-0.2051 1.197 0.052-0.406 0.1211-0.806 0.2071-1.199zm-5.9551 4.029c-0.2908 0.309-0.57 0.644-0.8438 0.993 0.2738-0.349 0.5529-0.683 0.8438-0.993zm7.6289 1.141s-0.0001 0 0 0c0.037 0.363 0.1028 0.712 0.1933 1.049-0.091-0.338-0.1545-0.687-0.1914-1.051-0.0003 0 0 0 0 0zm0.1933 1.051c0.1814 0.675 0.4663 1.301 0.8438 1.883-0.3774-0.582-0.6624-1.208-0.8438-1.883zm-8.8847-0.908c-0.1948 0.259-0.3852 0.526-0.5703 0.804 0.1849-0.277 0.3757-0.545 0.5703-0.804zm-0.8184 1.185c-0.1999 0.316-0.3928 0.644-0.5801 0.981 0.1871-0.337 0.3804-0.665 0.5801-0.981zm-0.709 1.205c-0.2299 0.425-0.4492 0.865-0.6582 1.319 0.2089-0.454 0.4284-0.894 0.6582-1.319zm-0.7832 1.604c-0.1688 0.378-0.3307 0.765-0.4844 1.16 0.1536-0.395 0.3156-0.781 0.4844-1.16zm-0.6113 1.498c-0.1502 0.402-0.2919 0.81-0.4258 1.226 0.1336-0.415 0.276-0.825 0.4258-1.226zm-0.5215 1.519c-0.3272 1.056-0.6008 2.15-0.8164 3.272 0.215-1.122 0.4897-2.216 0.8164-3.272zm21.5176 1.309c-0.5447 0.935-0.3283 0.652-0.9434 1.996-0.5288 1.156-1.8195 2.73-3.6543 3.65-2.4102 1.21-4.3378 0.372-5.3261 0.112-0.3837-0.13-0.516-0.131-0.6368-0.131-0.2014 0.21-1.5208 2.24-3 4.98-0.7686 1.43-1.6486 2.99-3.3222 4.26-1.1964 0.908-2.9349 1.425-4.6817 1.365 1.701 4.915 5.1182 9.018 10.8067 10.805 2.7378 0.86 5.6022 0.809 8.5781 0.359 7.7839-1.18 12.8302-8.908 11.3691-16.648-0.9386-4.972-4.4398-9.072-9.1894-10.748zm-22.3535 2.068c-0.102 0.541-0.1895 1.087-0.2637 1.637 0.074-0.55 0.162-1.096 0.2637-1.637zm-0.2774 1.75c-0.2301 1.756-0.3135 3.549-0.2343 5.33-0.08-1.78 0.01-3.574 0.2343-5.33zm-0.2304 5.442c0.028 0.585 0.074 1.168 0.1386 1.748-0.065-0.58-0.1101-1.163-0.1386-1.748zm0.1386 1.748c0.133 1.193 0.3447 2.369 0.6407 3.513-0.296-1.144-0.5073-2.321-0.6407-3.513zm0.6524 3.554c0.1424 0.547 0.3045 1.086 0.4863 1.616-0.1818-0.53-0.3438-1.069-0.4863-1.616z"/>
    <path fill="#ff8126" d="m8.8451 8.392c-0.069 0.09-0.1348 0.186-0.2031 0.277 0.068-0.09 0.1337-0.189 0.2031-0.277zm-0.8008 1.119c-0.099 0.149-0.1932 0.306-0.289 0.461 0.096-0.155 0.1903-0.312 0.289-0.461zm-0.748 1.238c-0.097 0.173-0.1919 0.348-0.2852 0.525 0.093-0.177 0.1884-0.352 0.2852-0.525zm-0.6914 1.34c-0.088 0.185-0.1755 0.369-0.2598 0.558 0.084-0.189 0.1719-0.374 0.2598-0.558zm-0.6465 1.482c-0.07 0.175-0.1405 0.346-0.207 0.524 0.066-0.178 0.1374-0.349 0.207-0.524zm-0.6133 1.694c-0.036 0.112-0.078 0.22-0.1133 0.334 0.035-0.114 0.077-0.222 0.1133-0.334zm18.1914 0.283c-0.8909 1.078-0.5518 2.724-2.9648 3.931-1.6617 0.83-4.0058-1.14-5.8457-0.22-4.1694 2.084-4.6819 12.209-10.4864 10.269 0.217 1.255 0.5189 2.485 0.9278 3.666 1.7474 0.06 3.4868-0.457 4.6836-1.365 1.6736-1.27 2.5536-2.83 3.3222-4.26 1.4792-2.74 2.7986-4.77 3-4.98 0.1208 0 0.2531 0 0.6368 0.131 0.9883 0.26 2.9159 1.098 5.3261-0.112 1.8348-0.92 3.1255-2.494 3.6543-3.65 0.6151-1.344 0.3987-1.061 0.9434-1.996-0.1229-0.04-0.2426-0.09-0.3672-0.133-1.1234-0.366-1.9051-0.774-2.8301-1.281zm-19.1172 3.291c-0.03 0.156-0.056 0.314-0.084 0.471 0.028-0.157 0.054-0.315 0.084-0.471zm-0.2793 1.687c-0.023 0.166-0.042 0.332-0.062 0.498 0.02-0.166 0.039-0.332 0.062-0.498zm-0.1933 1.762c-0.012 0.151-0.025 0.302-0.035 0.453 0.01-0.151 0.023-0.302 0.035-0.453zm-0.096 1.832c0 0.112-0.01 0.224-0.01 0.336 0-0.112 0.01-0.224 0.01-0.336zm0.014 1.848c0 0.08 0 0.165 0.01 0.248 0-0.08 0-0.166-0.01-0.248z"/>
    <path fill="#ffc882" d="m15.676 3.329c-2.461 2.39-4.5969 5.24-5.8476 7.92-0.044-1.27-0.069-2.59-0.1055-3.89-4.391 4.667-6.9072 13.977-5.4961 22.166 5.8177 1.961 6.3273-8.18 10.5-10.266 1.8399-0.92 4.184 1.051 5.8457 0.221 2.413-1.207 2.0739-2.854 2.9648-3.932-0.2638-0.145-0.4868-0.259-0.7968-0.43-3.0256-1.67-5.0935-3.709-5.3887-6.619-0.5927 0.29-0.7653 2.401-0.8223 4.641-1.1185-3.01-1.5415-6.671-0.8535-9.811z"/>
  </g>
</svg>
